# xmcd
# 
# Track frame offsets:
#   150
#   11400
#   23325
#   39375
#   56550
#   72600
#   85725
#   99225
#   116025
#   132300
#   144600
#   160950
#   178800
#   197175
#   213075
# 
# Disc length: 3030 seconds
# 
# Revision: 2
# Processed by: cddbd v1.5.2PL0 Copyright (c) Steve Scherf et al.
# Submitted via: Synapstar 1.0 
# 
DISCID=cb0bd40f
DTITLE=Various Artist - DKG3037
DYEAR=1900
DGENRE=Country
TTITLE0=Garth Brooks - Against The Grain
TTITLE1=Garth Brooks - Two Of A Kind Workin On A Full House]
TTITLE2=Billy Ray Cyrus - She's Not Crying Anymore
TTITLE3=Billy Ray Cyrus - Soimebody New
TTITLE4=Clint Black - Nobody's Home
TTITLE5=Clint Black - Walkin Away
TTITLE6=Randy Travis - Diggin Up Bones
TTITLE7=Randy Travis - I Told You So
TTITLE8=Randy Travis - Hard Rock Bottom Of Your Heart
TTITLE9=Randy Travis - Better Class Of Losers
TTITLE10=Travis Tritt - Can I Trust You With My Heart
TTITLE11=Travis Tritt - Nothing Short Of Dying
TTITLE12=Travis Tritt - Help Me Hold On
TTITLE13=Toby Keith - Should've Been A Cowboy
TTITLE14=Lyle Lovett - She's No Lady
EXTD=MediaType: Karaoke CD+G Producer: DK
EXTT0=
EXTT1=
EXTT2=
EXTT3=
EXTT4=
EXTT5=
EXTT6=
EXTT7=
EXTT8=
EXTT9=
EXTT10=
EXTT11=
EXTT12=
EXTT13=
EXTT14=
PLAYORDER=
